<svg width="40" height="40" viewBox="0 0 40 40" fill="none" xmlns="http://www.w3.org/2000/svg">
<path d="M20.0002 3.33337C17.8115 3.33337 15.6442 3.76447 13.6221 4.60205C11.6 5.43963 9.76269 6.66728 8.21505 8.21493C5.08944 11.3405 3.3335 15.5798 3.3335 20C3.3335 27.3667 8.11683 33.6167 14.7335 35.8334C15.5668 35.9667 15.8335 35.45 15.8335 35V32.1834C11.2168 33.1834 10.2335 29.95 10.2335 29.95C9.46683 28.0167 8.3835 27.5 8.3835 27.5C6.86683 26.4667 8.50016 26.5 8.50016 26.5C10.1668 26.6167 11.0502 28.2167 11.0502 28.2167C12.5002 30.75 14.9502 30 15.9002 29.6C16.0502 28.5167 16.4835 27.7834 16.9502 27.3667C13.2502 26.95 9.36683 25.5167 9.36683 19.1667C9.36683 17.3167 10.0002 15.8334 11.0835 14.65C10.9168 14.2334 10.3335 12.5 11.2502 10.25C11.2502 10.25 12.6502 9.80004 15.8335 11.95C17.1502 11.5834 18.5835 11.4 20.0002 11.4C21.4168 11.4 22.8502 11.5834 24.1668 11.95C27.3502 9.80004 28.7502 10.25 28.7502 10.25C29.6668 12.5 29.0835 14.2334 28.9168 14.65C30.0002 15.8334 30.6335 17.3167 30.6335 19.1667C30.6335 25.5334 26.7335 26.9334 23.0168 27.35C23.6168 27.8667 24.1668 28.8834 24.1668 30.4334V35C24.1668 35.45 24.4335 35.9834 25.2835 35.8334C31.9002 33.6 36.6668 27.3667 36.6668 20C36.6668 17.8113 36.2357 15.6441 35.3982 13.622C34.5606 11.5999 33.3329 9.76257 31.7853 8.21493C30.2376 6.66728 28.4003 5.43963 26.3782 4.60205C24.3561 3.76447 22.1889 3.33337 20.0002 3.33337Z" fill="white"/>
</svg>
